<svg width="391" height="483" viewBox="0 0 391 483" fill="none" xmlns="http://www.w3.org/2000/svg">
<path d="M335.163 57.799H260.069C256.323 25.316 228.686 0 195.214 0C161.743 0 134.11 25.315 130.364 57.799H55.266C24.876 57.799 0.154999 82.527 0.154999 112.916V115.744C0.154999 138.967 14.615 158.844 34.985 166.943V427.312C34.985 457.702 59.709 482.429 90.097 482.429H300.333C330.722 482.429 355.444 457.7 355.444 427.312V166.944C375.813 158.844 390.274 138.967 390.274 115.745V112.917C390.274 82.527 365.551 57.799 335.163 57.799ZM195.214 26.139C214.251 26.139 230.141 39.784 233.657 57.799H156.778C160.293 39.783 176.184 26.139 195.214 26.139ZM329.305 427.312C329.305 443.29 316.305 456.291 300.332 456.291H90.096C74.123 456.291 61.123 443.289 61.123 427.312V170.861H329.305V427.312ZM364.135 115.744C364.135 131.722 351.135 144.723 335.162 144.723H55.266C39.293 144.723 26.293 131.722 26.293 115.744V112.916C26.293 96.938 39.293 83.937 55.266 83.937H335.163C351.136 83.937 364.136 96.938 364.136 112.916V115.744H364.135Z" fill="white"/>
<path d="M125.144 422.863C132.362 422.863 138.213 417.01 138.213 409.795V262.641C138.213 255.425 132.361 249.571 125.144 249.571C117.927 249.571 112.075 255.425 112.075 262.641V409.795C112.074 417.012 117.926 422.863 125.144 422.863Z" fill="white"/>
<path d="M195.214 422.863C202.432 422.863 208.284 417.01 208.284 409.795V262.641C208.284 255.425 202.43 249.571 195.214 249.571C187.997 249.571 182.145 255.425 182.145 262.641V409.795C182.145 417.012 187.996 422.863 195.214 422.863Z" fill="white"/>
<path d="M265.284 422.863C272.501 422.863 278.352 417.01 278.352 409.795V262.641C278.352 255.425 272.5 249.571 265.284 249.571C258.065 249.571 252.214 255.425 252.214 262.641V409.795C252.213 417.012 258.067 422.863 265.284 422.863Z" fill="white"/>
</svg>
