<svg width="382" height="382" viewBox="0 0 382 382" fill="none" xmlns="http://www.w3.org/2000/svg">
<path d="M214.369 202.241L170.289 211.486L178.703 167.252C178.703 167.251 178.704 167.25 178.704 167.248C180.079 160.057 183.552 153.434 188.685 148.213L188.69 148.208L272.291 63.0553L316.833 106.765L233.222 191.929C228.086 197.159 221.538 200.738 214.37 202.24L214.369 202.241ZM330.845 92.4937L286.303 48.7837L314.837 19.7201C317.707 16.7961 321.126 14.4662 324.897 12.8633C328.668 11.2605 332.718 10.4161 336.816 10.3784C340.913 10.3407 344.978 11.1105 348.778 12.6437C352.578 14.177 356.039 16.4437 358.963 19.3144C361.887 22.1851 364.217 25.6037 365.82 29.3748C367.422 33.146 368.267 37.1959 368.304 41.2935C368.342 45.391 367.572 49.4558 366.039 53.2558C364.506 57.0558 362.239 60.5166 359.369 63.4406L330.845 92.4937Z" stroke="white" stroke-width="20" stroke-linecap="round" stroke-linejoin="round"/>
<mask id="path-2-inside-1" fill="white">
<path d="M335.92 267.178L336.533 333.872C336.641 345.664 332.061 357.016 323.799 365.431C315.538 373.846 304.272 378.634 292.479 378.743L47.9371 380.991C36.145 381.1 24.7928 376.519 16.3778 368.258C7.96287 359.996 3.17449 348.73 3.06606 336.938L0.817544 92.3956C0.709117 80.6034 5.28953 69.2512 13.5511 60.8363C21.8128 52.4213 33.0788 47.6329 44.871 47.5245L111.564 46.9113"/>
</mask>
<path d="M355.919 266.994C355.817 255.949 346.781 247.078 335.736 247.179C324.69 247.281 315.819 256.317 315.92 267.362L355.919 266.994ZM3.06606 336.938L-16.9331 337.122L3.06606 336.938ZM44.871 47.5245L44.6871 27.5254L44.871 47.5245ZM111.748 66.9104C122.793 66.8089 131.665 57.7726 131.563 46.7274C131.462 35.6822 122.426 26.8106 111.38 26.9121L111.748 66.9104ZM315.92 267.362L316.534 334.056L356.532 333.688L355.919 266.994L315.92 267.362ZM316.534 334.056C316.593 340.544 314.073 346.79 309.528 351.419L338.071 379.442C350.048 367.242 356.689 350.784 356.532 333.688L316.534 334.056ZM309.528 351.419C304.982 356.049 298.784 358.684 292.296 358.744L292.663 398.742C309.76 398.585 326.093 391.642 338.071 379.442L309.528 351.419ZM292.296 358.744L47.7532 360.992L48.121 400.99L292.663 398.742L292.296 358.744ZM47.7532 360.992C41.2652 361.052 35.0192 358.532 30.3893 353.986L2.36632 382.529C14.5663 394.507 31.0248 401.148 48.121 400.99L47.7532 360.992ZM30.3893 353.986C25.7594 349.441 23.1249 343.242 23.0652 336.754L-16.9331 337.122C-16.7759 354.218 -9.83369 370.552 2.36632 382.529L30.3893 353.986ZM23.0652 336.754L20.8167 92.2117L-19.1816 92.5795L-16.9331 337.122L23.0652 336.754ZM20.8167 92.2117C20.757 85.7237 23.2772 79.4777 27.8227 74.8478L-0.720419 46.8248C-12.6981 59.0248 -19.3388 75.4832 -19.1816 92.5795L20.8167 92.2117ZM27.8227 74.8478C32.3682 70.2179 38.5668 67.5833 45.0548 67.5237L44.6871 27.5254C27.5908 27.6826 11.2573 34.6248 -0.720419 46.8248L27.8227 74.8478ZM45.0548 67.5237L111.748 66.9104L111.38 26.9121L44.6871 27.5254L45.0548 67.5237Z" fill="white" mask="url(#path-2-inside-1)"/>
</svg>
